<svg width="40" height="39" viewBox="0 0 40 39" fill="none" xmlns="http://www.w3.org/2000/svg">
<path d="M5.70117 29.9294C5.70117 31.6449 7.0996 33.0361 8.82423 33.0361C10.5487 33.0361 11.9465 31.6449 11.9465 29.9294C11.9465 28.2137 10.5487 26.8228 8.82423 26.8228C7.09959 26.8228 5.70117 28.2138 5.70117 29.9294Z" fill="#A0D773"/>
<path d="M3.94922 8.47246C3.94922 9.63093 4.89309 10.5701 6.05777 10.5701C7.22167 10.5701 8.16633 9.63093 8.16633 8.47246C8.16633 7.31384 7.22167 6.37488 6.05777 6.37488C4.89309 6.37488 3.94922 7.31384 3.94922 8.47246Z" fill="#F0641E"/>
<path d="M31.0762 30.4802C31.0762 31.6386 32.0202 32.5777 33.1847 32.5777C34.3488 32.5777 35.2933 31.6386 35.2933 30.4802C35.2933 29.3215 34.3488 28.3826 33.1847 28.3826C32.0202 28.3826 31.0762 29.3215 31.0762 30.4802Z" fill="#F0641E"/>
<path d="M12.7578 24.0202C12.7578 25.1787 13.7018 26.1178 14.8664 26.1178C16.0304 26.1178 16.9749 25.1787 16.9749 24.0202C16.9749 22.8617 16.0304 21.9226 14.8664 21.9226C13.7018 21.9226 12.7578 22.8617 12.7578 24.0202Z" fill="#F0641E"/>
<path d="M22.1934 24.785C22.1934 26.8059 23.8403 28.4443 25.8719 28.4443C27.9034 28.4443 29.5499 26.8059 29.5499 24.785C29.5499 22.764 27.9034 21.1256 25.8719 21.1256C23.8403 21.1256 22.1934 22.764 22.1934 24.785Z" fill="#A0D773"/>
<path d="M1.6866 17.6542H4.21477C5.14617 17.6542 5.90152 18.4286 5.90152 19.384C5.90152 20.3389 5.14617 21.1133 4.21477 21.1133H1.6866C0.755199 21.1133 0 20.3389 0 19.384C0 18.4286 0.755199 17.6542 1.6866 17.6542Z" fill="#00705A"/>
<path d="M34.7901 7.132C34.1431 6.33792 32.9714 6.216 32.1732 6.85944L21.2047 15.715C20.4065 16.3591 20.2838 17.5242 20.9308 18.3181C21.5777 19.1128 22.7494 19.2343 23.5477 18.5907L34.5161 9.7353C35.3143 9.09169 35.4371 7.92609 34.7901 7.13202V7.132Z" fill="#00705A"/>
<path d="M17.9893 15.7608L12.1213 11.0519C11.3385 10.4236 10.1914 10.5456 9.56005 11.3243C8.92851 12.103 9.05107 13.2441 9.83449 13.8724L15.7018 18.5813C16.4853 19.2095 17.6317 19.0875 18.2632 18.3087C18.8946 17.53 18.7721 16.3891 17.9893 15.7608Z" fill="#00705A"/>
<path d="M21.2975 1.67797V4.19314C21.2975 5.11954 20.5192 5.87096 19.5587 5.87096C18.5987 5.87096 17.8203 5.11955 17.8203 4.19314V1.67797C17.8203 0.762269 18.5807 0.0173687 19.525 0H19.5924C20.5373 0.0173687 21.2975 0.762282 21.2975 1.67797H21.2975Z" fill="#00705A"/>
<path d="M35.0167 17.6542H37.545C38.4762 17.6542 39.2316 18.4286 39.2316 19.384C39.2316 20.3389 38.4762 21.1133 37.545 21.1133H35.0167C34.0854 21.1133 33.3301 20.3389 33.3301 19.384C33.3301 18.4286 34.0854 17.6542 35.0167 17.6542Z" fill="#00705A"/>
<path d="M21.2956 34.807V37.3221C21.2956 38.2485 20.5173 39 19.5567 39C18.5968 39 17.8184 38.2486 17.8184 37.3221V34.807C17.8184 33.8806 18.5968 33.1292 19.5567 33.1292C20.5173 33.1292 21.2956 33.8806 21.2956 34.807Z" fill="#00705A"/>
</svg>
