<svg width="107" height="107" viewBox="0 0 107 107" fill="none" xmlns="http://www.w3.org/2000/svg">
<path d="M87.6551 42.117L84.714 39.177C83.5702 38.0336 82.9167 36.482 82.9167 34.8527V30.6428C82.9167 23.8645 77.4022 18.356 70.6214 18.356H66.414C64.7801 18.356 63.2279 17.6986 62.0841 16.5553L59.1022 13.5785C54.2821 8.80104 46.4801 8.80104 41.7009 13.6153L38.7598 16.5553C37.6161 17.6986 36.0639 18.356 34.4299 18.356H30.2226C23.4418 18.356 17.9273 23.8645 17.9273 30.6428V34.8078C17.9273 36.482 17.2737 38.0336 16.13 39.177L13.148 42.1619C8.36882 46.9761 8.40967 54.7794 13.1889 59.5528L16.13 62.452C17.2737 63.6361 17.9273 65.1878 17.9273 66.8252V71.027C17.9273 77.8053 23.4418 83.3219 30.2226 83.3219H34.4299C36.0639 83.3219 37.6161 83.9711 38.7598 85.1145L41.7417 88.0994C44.1518 90.4677 47.2971 91.6478 50.4424 91.6478C53.5877 91.6478 56.733 90.4677 59.1431 88.0545L62.0841 85.1145C63.2279 83.9711 64.7801 83.3219 66.414 83.3219H70.6214C77.4022 83.3219 82.9167 77.8053 82.9167 71.027V66.8252C82.9167 65.1878 83.5702 63.6361 84.714 62.4928L87.6142 59.5936C87.655 59.5528 87.6959 59.516 87.7367 59.4711C90.0242 57.1477 91.2905 54.0403 91.2497 50.7736C91.2497 47.507 89.9834 44.4036 87.6551 42.117Z" fill="url(#paint0_linear_526_1462)"/>
<g opacity="0.5" filter="url(#filter0_f_526_1462)">
<path d="M75.0727 45.0591L73.1254 43.1126C72.3682 42.3556 71.9354 41.3283 71.9354 40.2496V37.4622C71.9354 32.9744 68.2844 29.3274 63.7949 29.3274H61.0092C59.9274 29.3274 58.8997 28.8921 58.1425 28.1351L56.1682 26.1642C52.9769 23.0011 47.8113 23.0011 44.647 26.1886L42.6998 28.1351C41.9425 28.8921 40.9148 29.3274 39.833 29.3274H37.0474C32.5579 29.3274 28.9068 32.9744 28.9068 37.4622V40.2198C28.9068 41.3283 28.4741 42.3556 27.7168 43.1126L25.7425 45.0889C22.5783 48.2763 22.6053 53.4428 25.7696 56.6032L27.7168 58.5227C28.4741 59.3067 28.9068 60.334 28.9068 61.4182V64.2001C28.9068 68.6879 32.5579 72.3404 37.0474 72.3404H39.833C40.9148 72.3404 41.9425 72.7702 42.6998 73.5272L44.6741 75.5035C46.2697 77.0715 48.3522 77.8529 50.4346 77.8529C52.5171 77.8529 54.5996 77.0715 56.1952 75.4738L58.1425 73.5272C58.8997 72.7702 59.9274 72.3404 61.0092 72.3404H63.7949C68.2844 72.3404 71.9354 68.6879 71.9354 64.2001V61.4182C71.9354 60.334 72.3682 59.3067 73.1254 58.5497L75.0456 56.6302C75.0727 56.6032 75.0997 56.5789 75.1268 56.5491C76.6413 55.0108 77.4797 52.9534 77.4526 50.7906C77.4526 48.6278 76.6142 46.5731 75.0727 45.0591Z" fill="#F0641E"/>
</g>
<g filter="url(#filter1_b_526_1462)">
<mask id="path-3-outside-1_526_1462" maskUnits="userSpaceOnUse" x="22.75" y="23.1699" width="84" height="84" fill="black">
<rect fill="white" x="22.75" y="23.1699" width="84" height="84"/>
<path d="M101.821 56.2869L98.88 53.3469C97.7363 52.2035 97.0827 50.6519 97.0827 49.0226V44.8127C97.0827 38.0344 91.5682 32.526 84.7874 32.526H80.58C78.9461 32.526 77.3939 31.8685 76.2501 30.7252L73.2682 27.7485C68.4481 22.971 60.6461 22.971 55.8669 27.7852L52.9258 30.7252C51.7821 31.8685 50.2299 32.526 48.5959 32.526H44.3886C37.6078 32.526 32.0933 38.0344 32.0933 44.8127V48.9777C32.0933 50.6519 31.4397 52.2035 30.296 53.3469L27.3141 56.3318C22.5348 61.146 22.5757 68.9493 27.3549 73.7227L30.296 76.6219C31.4397 77.806 32.0933 79.3577 32.0933 80.9951V85.1969C32.0933 91.9752 37.6078 97.4918 44.3886 97.4918H48.5959C50.2299 97.4918 51.7821 98.141 52.9258 99.2844L55.9078 102.269C58.3178 104.638 61.4631 105.818 64.6084 105.818C67.7537 105.818 70.899 104.638 73.3091 102.224L76.2501 99.2844C77.3939 98.141 78.9461 97.4918 80.58 97.4918H84.7874C91.5682 97.4918 97.0827 91.9752 97.0827 85.1969V80.9951C97.0827 79.3577 97.7363 77.806 98.88 76.6627L101.78 73.7635C101.821 73.7227 101.862 73.686 101.903 73.641C104.19 71.3176 105.457 68.2102 105.416 64.9435C105.416 61.6769 104.149 58.5735 101.821 56.2869Z"/>
</mask>
<path d="M101.821 56.2869L98.88 53.3469C97.7363 52.2035 97.0827 50.6519 97.0827 49.0226V44.8127C97.0827 38.0344 91.5682 32.526 84.7874 32.526H80.58C78.9461 32.526 77.3939 31.8685 76.2501 30.7252L73.2682 27.7485C68.4481 22.971 60.6461 22.971 55.8669 27.7852L52.9258 30.7252C51.7821 31.8685 50.2299 32.526 48.5959 32.526H44.3886C37.6078 32.526 32.0933 38.0344 32.0933 44.8127V48.9777C32.0933 50.6519 31.4397 52.2035 30.296 53.3469L27.3141 56.3318C22.5348 61.146 22.5757 68.9493 27.3549 73.7227L30.296 76.6219C31.4397 77.806 32.0933 79.3577 32.0933 80.9951V85.1969C32.0933 91.9752 37.6078 97.4918 44.3886 97.4918H48.5959C50.2299 97.4918 51.7821 98.141 52.9258 99.2844L55.9078 102.269C58.3178 104.638 61.4631 105.818 64.6084 105.818C67.7537 105.818 70.899 104.638 73.3091 102.224L76.2501 99.2844C77.3939 98.141 78.9461 97.4918 80.58 97.4918H84.7874C91.5682 97.4918 97.0827 91.9752 97.0827 85.1969V80.9951C97.0827 79.3577 97.7363 77.806 98.88 76.6627L101.78 73.7635C101.821 73.7227 101.862 73.686 101.903 73.641C104.19 71.3176 105.457 68.2102 105.416 64.9435C105.416 61.6769 104.149 58.5735 101.821 56.2869Z" fill="#FFCBB9" fill-opacity="0.35"/>
<path d="M98.88 53.3469L99.587 52.6396H99.587L98.88 53.3469ZM76.2501 30.7252L76.9571 30.018L76.9566 30.0175L76.2501 30.7252ZM73.2682 27.7485L73.9747 27.0407L73.9722 27.0382L73.2682 27.7485ZM55.8669 27.7852L56.5739 28.4925L56.5766 28.4897L55.8669 27.7852ZM52.9258 30.7252L53.6328 31.4325L52.9258 30.7252ZM30.296 53.3469L29.589 52.6396L29.5885 52.6401L30.296 53.3469ZM27.3141 56.3318L26.6066 55.625L26.6044 55.6273L27.3141 56.3318ZM27.3549 73.7227L26.6482 74.4303L26.6529 74.4349L27.3549 73.7227ZM30.296 76.6219L31.0153 75.9272C31.0096 75.9213 31.0038 75.9155 30.998 75.9097L30.296 76.6219ZM52.9258 99.2844L53.6333 98.5776L53.6328 98.5771L52.9258 99.2844ZM55.9078 102.269L55.2003 102.976L55.2069 102.983L55.9078 102.269ZM73.3091 102.224L72.6021 101.517L72.6015 101.518L73.3091 102.224ZM76.2501 99.2844L76.9571 99.9916L76.2501 99.2844ZM98.88 76.6627L99.587 77.3699H99.587L98.88 76.6627ZM101.78 73.7635L101.073 73.0563V73.0563L101.78 73.7635ZM101.903 73.641L101.19 72.9395C101.181 72.9489 101.172 72.9585 101.163 72.9682L101.903 73.641ZM105.416 64.9435H104.416L104.416 64.9561L105.416 64.9435ZM101.821 56.2869L101.114 56.9941L101.12 57.0003L101.821 56.2869ZM102.528 55.5796L99.587 52.6396L98.173 54.0541L101.114 56.9941L102.528 55.5796ZM99.587 52.6396C98.6284 51.6814 98.0827 50.3832 98.0827 49.0226H96.0827C96.0827 50.9206 96.8441 52.7257 98.173 54.0541L99.587 52.6396ZM98.0827 49.0226V44.8127H96.0827V49.0226H98.0827ZM98.0827 44.8127C98.0827 37.4813 92.1197 31.526 84.7874 31.526V33.526C91.0167 33.526 96.0827 38.5874 96.0827 44.8127H98.0827ZM84.7874 31.526H80.58V33.526H84.7874V31.526ZM80.58 31.526C79.2159 31.526 77.9167 30.9772 76.9571 30.018L75.5432 31.4325C76.8711 32.7599 78.6763 33.526 80.58 33.526V31.526ZM76.9566 30.0175L73.9747 27.0407L72.5617 28.4562L75.5436 31.4329L76.9566 30.0175ZM73.9722 27.0382C68.7635 21.8756 60.3288 21.8713 55.1572 27.0807L56.5766 28.4897C60.9635 24.0707 68.1327 24.0663 72.5643 28.4587L73.9722 27.0382ZM55.1599 27.078L52.2189 30.018L53.6328 31.4325L56.5739 28.4925L55.1599 27.078ZM52.2189 30.018C51.2593 30.9772 49.9601 31.526 48.5959 31.526V33.526C50.4997 33.526 52.3049 32.7599 53.6328 31.4325L52.2189 30.018ZM48.5959 31.526H44.3886V33.526H48.5959V31.526ZM44.3886 31.526C37.0563 31.526 31.0933 37.4813 31.0933 44.8127H33.0933C33.0933 38.5874 38.1593 33.526 44.3886 33.526V31.526ZM31.0933 44.8127V48.9777H33.0933V44.8127H31.0933ZM31.0933 48.9777C31.0933 50.3871 30.5448 51.6842 29.589 52.6396L31.003 54.0541C32.3346 52.7229 33.0933 50.9167 33.0933 48.9777H31.0933ZM29.5885 52.6401L26.6066 55.625L28.0215 57.0385L31.0034 54.0536L29.5885 52.6401ZM26.6044 55.6273C21.4354 60.8341 21.4806 69.2689 26.6482 74.4302L28.0616 73.0152C23.6708 68.6297 23.6343 61.458 28.0237 57.0363L26.6044 55.6273ZM26.6529 74.4349L29.594 77.334L30.998 75.9097L28.0569 73.0106L26.6529 74.4349ZM29.5767 77.3166C30.5487 78.3229 31.0933 79.6286 31.0933 80.9951H33.0933C33.0933 79.0868 32.3308 77.2892 31.0153 75.9272L29.5767 77.3166ZM31.0933 80.9951V85.1969H33.0933V80.9951H31.0933ZM31.0933 85.1969C31.0933 92.5274 37.0554 98.4918 44.3886 98.4918V96.4918C38.1602 96.4918 33.0933 91.423 33.0933 85.1969H31.0933ZM44.3886 98.4918H48.5959V96.4918H44.3886V98.4918ZM48.5959 98.4918C49.9635 98.4918 51.2618 99.0349 52.2189 99.9916L53.6328 98.5771C52.3024 97.2472 50.4963 96.4918 48.5959 96.4918V98.4918ZM52.2184 99.9911L55.2003 102.976L56.6152 101.563L53.6333 98.5776L52.2184 99.9911ZM55.2069 102.983C57.8126 105.543 61.2134 106.818 64.6084 106.818V104.818C61.7129 104.818 58.823 103.732 56.6087 101.556L55.2069 102.983ZM64.6084 106.818C68.0046 106.818 71.409 105.542 74.0166 102.931L72.6015 101.518C70.3891 103.733 67.5028 104.818 64.6084 104.818V106.818ZM74.016 102.932L76.9571 99.9916L75.5432 98.5771L72.6021 101.517L74.016 102.932ZM76.9571 99.9916C77.9142 99.0349 79.2125 98.4918 80.58 98.4918V96.4918C78.6797 96.4918 76.8735 97.2472 75.5432 98.5771L76.9571 99.9916ZM80.58 98.4918H84.7874V96.4918H80.58V98.4918ZM84.7874 98.4918C92.1206 98.4918 98.0827 92.5274 98.0827 85.1969H96.0827C96.0827 91.423 91.0158 96.4918 84.7874 96.4918V98.4918ZM98.0827 85.1969V80.9951H96.0827V85.1969H98.0827ZM98.0827 80.9951C98.0827 79.6257 98.6289 78.3277 99.587 77.3699L98.173 75.9555C96.8436 77.2844 96.0827 79.0897 96.0827 80.9951H98.0827ZM99.587 77.3699L102.487 74.4708L101.073 73.0563L98.173 75.9555L99.587 77.3699ZM102.487 74.4708C102.502 74.4556 102.506 74.4525 102.539 74.42C102.565 74.3947 102.602 74.3582 102.643 74.3139L101.163 72.9682C101.162 72.9688 101.158 72.9731 101.144 72.9877C101.135 72.9963 101.129 73.002 101.115 73.0151C101.104 73.0262 101.089 73.0405 101.073 73.0563L102.487 74.4708ZM102.615 74.3426C105.088 71.8312 106.46 68.4676 106.416 64.931L104.416 64.9561C104.453 67.9528 103.293 70.804 101.19 72.9395L102.615 74.3426ZM106.416 64.9435C106.416 61.4162 105.047 58.0534 102.522 55.5734L101.12 57.0003C103.252 59.0937 104.416 61.9376 104.416 64.9435H106.416Z" fill="url(#paint1_linear_526_1462)" mask="url(#path-3-outside-1_526_1462)"/>
</g>
<g filter="url(#filter2_bd_526_1462)">
<mask id="path-5-inside-2_526_1462" fill="white">
<path fill-rule="evenodd" clip-rule="evenodd" d="M56.6011 78.0098C55.9475 78.7039 55.0489 79.0714 54.0685 79.0714C53.129 79.0714 52.2304 78.7039 51.5768 78.0098C50.1879 76.6214 50.1879 74.3348 51.5768 72.9464L72.5727 51.9581C73.9616 50.5739 76.2082 50.5739 77.597 51.9581C78.9859 53.3464 78.9859 55.6372 77.597 57.0255L56.6011 78.0098ZM75.1044 79.0716C73.1028 79.0716 71.5098 77.4791 71.5098 75.4783C71.5098 73.5224 73.1028 71.9258 75.1044 71.9258C77.0651 71.9258 78.6582 73.5224 78.6582 75.4783C78.6582 77.4791 77.0651 79.0716 75.1044 79.0716ZM57.664 54.49C57.664 52.53 56.071 50.9375 54.1103 50.9375C52.1495 50.9375 50.5156 52.53 50.5156 54.49C50.5156 56.4949 52.1495 58.0833 54.1103 58.0833C56.071 58.0833 57.664 56.4949 57.664 54.49Z"/>
</mask>
<path fill-rule="evenodd" clip-rule="evenodd" d="M56.6011 78.0098C55.9475 78.7039 55.0489 79.0714 54.0685 79.0714C53.129 79.0714 52.2304 78.7039 51.5768 78.0098C50.1879 76.6214 50.1879 74.3348 51.5768 72.9464L72.5727 51.9581C73.9616 50.5739 76.2082 50.5739 77.597 51.9581C78.9859 53.3464 78.9859 55.6372 77.597 57.0255L56.6011 78.0098ZM75.1044 79.0716C73.1028 79.0716 71.5098 77.4791 71.5098 75.4783C71.5098 73.5224 73.1028 71.9258 75.1044 71.9258C77.0651 71.9258 78.6582 73.5224 78.6582 75.4783C78.6582 77.4791 77.0651 79.0716 75.1044 79.0716ZM57.664 54.49C57.664 52.53 56.071 50.9375 54.1103 50.9375C52.1495 50.9375 50.5156 52.53 50.5156 54.49C50.5156 56.4949 52.1495 58.0833 54.1103 58.0833C56.071 58.0833 57.664 56.4949 57.664 54.49Z" fill="url(#paint2_linear_526_1462)"/>
<path d="M56.6011 78.0098L56.3182 77.7267L56.3099 77.7356L56.6011 78.0098ZM51.5768 78.0098L51.8681 77.7354L51.8596 77.7269L51.5768 78.0098ZM51.5768 72.9464L51.294 72.6635H51.294L51.5768 72.9464ZM72.5727 51.9581L72.2904 51.6748L72.2899 51.6752L72.5727 51.9581ZM77.597 51.9581L77.8798 51.6752L77.8794 51.6748L77.597 51.9581ZM77.597 57.0255L77.8798 57.3084L77.8798 57.3084L77.597 57.0255ZM54.0685 79.4714C55.1514 79.4714 56.158 79.0639 56.8923 78.284L56.3099 77.7356C55.737 78.344 54.9463 78.6714 54.0685 78.6714V79.4714ZM51.2856 78.284C52.0182 79.0621 53.0239 79.4714 54.0685 79.4714V78.6714C53.2341 78.6714 52.4425 78.3458 51.868 77.7356L51.2856 78.284ZM51.294 72.6635C49.7489 74.2081 49.7489 76.7481 51.294 78.2927L51.8596 77.7269C50.627 76.4948 50.627 74.4614 51.8596 73.2293L51.294 72.6635ZM72.2899 51.6752L51.294 72.6635L51.8596 73.2293L72.8555 52.241L72.2899 51.6752ZM77.8794 51.6748C76.3345 50.135 73.8353 50.135 72.2904 51.6748L72.8551 52.2414C74.0878 51.0128 76.0819 51.0128 77.3147 52.2414L77.8794 51.6748ZM77.8798 57.3084C79.425 55.7639 79.425 53.2198 77.8798 51.6752L77.3143 52.241C78.5468 53.4731 78.5468 55.5105 77.3143 56.7426L77.8798 57.3084ZM56.8839 78.2927L77.8798 57.3084L77.3143 56.7426L56.3183 77.7269L56.8839 78.2927ZM71.1098 75.4783C71.1098 77.7002 72.8821 79.4716 75.1044 79.4716V78.6716C73.3236 78.6716 71.9098 77.2581 71.9098 75.4783H71.1098ZM75.1044 71.5258C72.8848 71.5258 71.1098 73.2986 71.1098 75.4783H71.9098C71.9098 73.7461 73.3209 72.3258 75.1044 72.3258V71.5258ZM79.0582 75.4783C79.0582 73.3016 77.2862 71.5258 75.1044 71.5258V72.3258C76.844 72.3258 78.2582 73.7431 78.2582 75.4783H79.0582ZM75.1044 79.4716C77.2889 79.4716 79.0582 77.6972 79.0582 75.4783H78.2582C78.2582 77.2611 76.8414 78.6716 75.1044 78.6716V79.4716ZM54.1103 51.3375C55.8502 51.3375 57.264 52.751 57.264 54.49H58.064C58.064 52.3089 56.2917 50.5375 54.1103 50.5375V51.3375ZM50.9156 54.49C50.9156 52.757 52.3644 51.3375 54.1103 51.3375V50.5375C51.9347 50.5375 50.1156 52.303 50.1156 54.49H50.9156ZM54.1103 57.6833C52.3671 57.6833 50.9156 56.2706 50.9156 54.49H50.1156C50.1156 56.7192 51.932 58.4833 54.1103 58.4833V57.6833ZM57.264 54.49C57.264 56.2766 55.8475 57.6833 54.1103 57.6833V58.4833C56.2944 58.4833 58.064 56.7133 58.064 54.49H57.264Z" fill="url(#paint3_linear_526_1462)" mask="url(#path-5-inside-2_526_1462)"/>
</g>
<defs>
<filter id="filter0_f_526_1462" x="0.382812" y="0.794922" width="100.07" height="100.058" filterUnits="userSpaceOnUse" color-interpolation-filters="sRGB">
<feFlood flood-opacity="0" result="BackgroundImageFix"/>
<feBlend mode="normal" in="SourceGraphic" in2="BackgroundImageFix" result="shape"/>
<feGaussianBlur stdDeviation="11.5" result="effect1_foregroundBlur_526_1462"/>
</filter>
<filter id="filter1_b_526_1462" x="-1.25" y="-0.830078" width="131.666" height="131.648" filterUnits="userSpaceOnUse" color-interpolation-filters="sRGB">
<feFlood flood-opacity="0" result="BackgroundImageFix"/>
<feGaussianBlur in="BackgroundImageFix" stdDeviation="12"/>
<feComposite in2="SourceAlpha" operator="in" result="effect1_backgroundBlur_526_1462"/>
<feBlend mode="normal" in="SourceGraphic" in2="effect1_backgroundBlur_526_1462" result="shape"/>
</filter>
<filter id="filter2_bd_526_1462" x="35.5156" y="35.9199" width="58.1426" height="58.1519" filterUnits="userSpaceOnUse" color-interpolation-filters="sRGB">
<feFlood flood-opacity="0" result="BackgroundImageFix"/>
<feGaussianBlur in="BackgroundImageFix" stdDeviation="7.5"/>
<feComposite in2="SourceAlpha" operator="in" result="effect1_backgroundBlur_526_1462"/>
<feColorMatrix in="SourceAlpha" type="matrix" values="0 0 0 0 0 0 0 0 0 0 0 0 0 0 0 0 0 0 127 0" result="hardAlpha"/>
<feOffset dx="5" dy="5"/>
<feGaussianBlur stdDeviation="5"/>
<feColorMatrix type="matrix" values="0 0 0 0 1 0 0 0 0 0.580392 0 0 0 0 0.247059 0 0 0 0.5 0"/>
<feBlend mode="normal" in2="effect1_backgroundBlur_526_1462" result="effect2_dropShadow_526_1462"/>
<feBlend mode="normal" in="SourceGraphic" in2="effect2_dropShadow_526_1462" result="shape"/>
</filter>
<linearGradient id="paint0_linear_526_1462" x1="50.4173" y1="10" x2="50.4173" y2="91.6478" gradientUnits="userSpaceOnUse">
<stop stop-color="#FFB37F"/>
<stop offset="1" stop-color="#FF7B0D"/>
</linearGradient>
<linearGradient id="paint1_linear_526_1462" x1="23.5118" y1="23.6147" x2="88.7728" y2="98.244" gradientUnits="userSpaceOnUse">
<stop stop-color="white" stop-opacity="0.4"/>
<stop offset="1" stop-color="white" stop-opacity="0"/>
</linearGradient>
<linearGradient id="paint2_linear_526_1462" x1="76.6629" y1="56.0036" x2="45.3147" y2="57.0253" gradientUnits="userSpaceOnUse">
<stop stop-color="white"/>
<stop offset="1" stop-color="white" stop-opacity="0.2"/>
</linearGradient>
<linearGradient id="paint3_linear_526_1462" x1="54.9955" y1="54.1996" x2="72.9545" y2="76.4351" gradientUnits="userSpaceOnUse">
<stop stop-color="white" stop-opacity="0.25"/>
<stop offset="1" stop-color="white" stop-opacity="0"/>
</linearGradient>
</defs>
</svg>
